<mxfile host="app.diagrams.net" agent="Mozilla/5.0 (Windows NT 10.0; Win64; x64) AppleWebKit/537.36 (KHTML, like Gecko) Chrome/130.0.0.0 Safari/537.36" version="24.8.4">
  <diagram name="Страница — 1" id="AXk9JAK60QHgBCtI9MWh">
    <mxGraphModel dx="1687" dy="918" grid="1" gridSize="10" guides="1" tooltips="1" connect="1" arrows="1" fold="1" page="1" pageScale="1" pageWidth="1654" pageHeight="2336" math="0" shadow="0">
      <root>
        <mxCell id="0" />
        <mxCell id="1" parent="0" />
        <mxCell id="68QdZSAuThLKgnhkQhWJ-31" value="Клиент" style="shape=umlActor;verticalLabelPosition=bottom;verticalAlign=top;html=1;outlineConnect=0;" vertex="1" parent="1">
          <mxGeometry x="330" y="160" width="30" height="60" as="geometry" />
        </mxCell>
        <mxCell id="68QdZSAuThLKgnhkQhWJ-32" value="Сотрудник лизинга" style="shape=umlActor;verticalLabelPosition=bottom;verticalAlign=top;html=1;outlineConnect=0;" vertex="1" parent="1">
          <mxGeometry x="330" y="640" width="30" height="60" as="geometry" />
        </mxCell>
        <mxCell id="68QdZSAuThLKgnhkQhWJ-34" value="Выбор авто" style="ellipse;whiteSpace=wrap;html=1;" vertex="1" parent="1">
          <mxGeometry x="80" y="160" width="140" height="80" as="geometry" />
        </mxCell>
        <mxCell id="68QdZSAuThLKgnhkQhWJ-35" value="Регистрация клиента" style="ellipse;whiteSpace=wrap;html=1;" vertex="1" parent="1">
          <mxGeometry x="260" y="420" width="140" height="80" as="geometry" />
        </mxCell>
        <mxCell id="68QdZSAuThLKgnhkQhWJ-36" value="Просмотре доступных авто" style="ellipse;whiteSpace=wrap;html=1;" vertex="1" parent="1">
          <mxGeometry x="460" y="150" width="140" height="80" as="geometry" />
        </mxCell>
        <mxCell id="68QdZSAuThLKgnhkQhWJ-37" value="Возврат авто" style="ellipse;whiteSpace=wrap;html=1;" vertex="1" parent="1">
          <mxGeometry x="275" y="10" width="140" height="80" as="geometry" />
        </mxCell>
        <mxCell id="68QdZSAuThLKgnhkQhWJ-38" value="оформление аренды" style="ellipse;whiteSpace=wrap;html=1;" vertex="1" parent="1">
          <mxGeometry x="80" y="420" width="140" height="80" as="geometry" />
        </mxCell>
        <mxCell id="68QdZSAuThLKgnhkQhWJ-39" value="Выдача авто" style="ellipse;whiteSpace=wrap;html=1;" vertex="1" parent="1">
          <mxGeometry x="440" y="420" width="140" height="80" as="geometry" />
        </mxCell>
        <mxCell id="68QdZSAuThLKgnhkQhWJ-40" value="Проверка состояния" style="ellipse;whiteSpace=wrap;html=1;" vertex="1" parent="1">
          <mxGeometry x="600" y="420" width="140" height="80" as="geometry" />
        </mxCell>
        <mxCell id="68QdZSAuThLKgnhkQhWJ-41" value="Расчет" style="ellipse;whiteSpace=wrap;html=1;" vertex="1" parent="1">
          <mxGeometry x="687" y="790" width="140" height="80" as="geometry" />
        </mxCell>
        <mxCell id="68QdZSAuThLKgnhkQhWJ-42" value="Обновление данных" style="ellipse;whiteSpace=wrap;html=1;" vertex="1" parent="1">
          <mxGeometry x="757" y="150" width="140" height="80" as="geometry" />
        </mxCell>
        <mxCell id="68QdZSAuThLKgnhkQhWJ-43" value="Система" style="shape=umlActor;verticalLabelPosition=bottom;verticalAlign=top;html=1;outlineConnect=0;" vertex="1" parent="1">
          <mxGeometry x="440" y="290" width="30" height="60" as="geometry" />
        </mxCell>
        <mxCell id="68QdZSAuThLKgnhkQhWJ-44" value="" style="edgeStyle=segmentEdgeStyle;endArrow=classic;html=1;curved=0;rounded=0;endSize=8;startSize=8;entryX=0.5;entryY=1;entryDx=0;entryDy=0;" edge="1" parent="1" source="68QdZSAuThLKgnhkQhWJ-32" target="68QdZSAuThLKgnhkQhWJ-35">
          <mxGeometry width="50" height="50" relative="1" as="geometry">
            <mxPoint x="390" y="550" as="sourcePoint" />
            <mxPoint x="440" y="500" as="targetPoint" />
          </mxGeometry>
        </mxCell>
        <mxCell id="68QdZSAuThLKgnhkQhWJ-45" value="" style="edgeStyle=segmentEdgeStyle;endArrow=classic;html=1;curved=0;rounded=0;endSize=8;startSize=8;entryX=0.5;entryY=1;entryDx=0;entryDy=0;" edge="1" parent="1" source="68QdZSAuThLKgnhkQhWJ-32" target="68QdZSAuThLKgnhkQhWJ-38">
          <mxGeometry width="50" height="50" relative="1" as="geometry">
            <mxPoint x="160" y="650" as="sourcePoint" />
            <mxPoint x="210" y="600" as="targetPoint" />
          </mxGeometry>
        </mxCell>
        <mxCell id="68QdZSAuThLKgnhkQhWJ-46" value="" style="edgeStyle=segmentEdgeStyle;endArrow=classic;html=1;curved=0;rounded=0;endSize=8;startSize=8;entryX=0;entryY=1;entryDx=0;entryDy=0;" edge="1" parent="1" source="68QdZSAuThLKgnhkQhWJ-58" target="68QdZSAuThLKgnhkQhWJ-39">
          <mxGeometry width="50" height="50" relative="1" as="geometry">
            <mxPoint x="530" y="650" as="sourcePoint" />
            <mxPoint x="580" y="600" as="targetPoint" />
          </mxGeometry>
        </mxCell>
        <mxCell id="68QdZSAuThLKgnhkQhWJ-47" value="" style="edgeStyle=segmentEdgeStyle;endArrow=classic;html=1;curved=0;rounded=0;endSize=8;startSize=8;entryX=0.5;entryY=1;entryDx=0;entryDy=0;" edge="1" parent="1" source="68QdZSAuThLKgnhkQhWJ-58" target="68QdZSAuThLKgnhkQhWJ-40">
          <mxGeometry width="50" height="50" relative="1" as="geometry">
            <mxPoint x="560" y="700" as="sourcePoint" />
            <mxPoint x="610" y="650" as="targetPoint" />
          </mxGeometry>
        </mxCell>
        <mxCell id="68QdZSAuThLKgnhkQhWJ-48" value="" style="edgeStyle=segmentEdgeStyle;endArrow=classic;html=1;curved=0;rounded=0;endSize=8;startSize=8;entryX=0.5;entryY=0;entryDx=0;entryDy=0;" edge="1" parent="1" source="68QdZSAuThLKgnhkQhWJ-31" target="68QdZSAuThLKgnhkQhWJ-35">
          <mxGeometry width="50" height="50" relative="1" as="geometry">
            <mxPoint x="390" y="290" as="sourcePoint" />
            <mxPoint x="440" y="240" as="targetPoint" />
            <Array as="points">
              <mxPoint x="310" y="190" />
              <mxPoint x="310" y="420" />
            </Array>
          </mxGeometry>
        </mxCell>
        <mxCell id="68QdZSAuThLKgnhkQhWJ-49" value="" style="edgeStyle=segmentEdgeStyle;endArrow=classic;html=1;curved=0;rounded=0;endSize=8;startSize=8;entryX=0;entryY=0.5;entryDx=0;entryDy=0;" edge="1" parent="1" source="68QdZSAuThLKgnhkQhWJ-31" target="68QdZSAuThLKgnhkQhWJ-36">
          <mxGeometry width="50" height="50" relative="1" as="geometry">
            <mxPoint x="380" y="200" as="sourcePoint" />
            <mxPoint x="430" y="150" as="targetPoint" />
          </mxGeometry>
        </mxCell>
        <mxCell id="68QdZSAuThLKgnhkQhWJ-50" value="" style="edgeStyle=segmentEdgeStyle;endArrow=classic;html=1;curved=0;rounded=0;endSize=8;startSize=8;entryX=1;entryY=0.5;entryDx=0;entryDy=0;" edge="1" parent="1" source="68QdZSAuThLKgnhkQhWJ-31" target="68QdZSAuThLKgnhkQhWJ-34">
          <mxGeometry width="50" height="50" relative="1" as="geometry">
            <mxPoint x="225" y="170" as="sourcePoint" />
            <mxPoint x="275" y="120" as="targetPoint" />
            <Array as="points">
              <mxPoint x="220" y="170" />
            </Array>
          </mxGeometry>
        </mxCell>
        <mxCell id="68QdZSAuThLKgnhkQhWJ-51" value="" style="edgeStyle=segmentEdgeStyle;endArrow=classic;html=1;curved=0;rounded=0;endSize=8;startSize=8;entryX=0.5;entryY=1;entryDx=0;entryDy=0;" edge="1" parent="1" source="68QdZSAuThLKgnhkQhWJ-31" target="68QdZSAuThLKgnhkQhWJ-37">
          <mxGeometry width="50" height="50" relative="1" as="geometry">
            <mxPoint x="380" y="130" as="sourcePoint" />
            <mxPoint x="430" y="80" as="targetPoint" />
          </mxGeometry>
        </mxCell>
        <mxCell id="68QdZSAuThLKgnhkQhWJ-52" value="" style="edgeStyle=segmentEdgeStyle;endArrow=classic;html=1;curved=0;rounded=0;endSize=8;startSize=8;entryX=0;entryY=0.5;entryDx=0;entryDy=0;exitX=0.5;exitY=0;exitDx=0;exitDy=0;exitPerimeter=0;" edge="1" parent="1" source="68QdZSAuThLKgnhkQhWJ-43" target="68QdZSAuThLKgnhkQhWJ-42">
          <mxGeometry width="50" height="50" relative="1" as="geometry">
            <mxPoint x="720" y="340" as="sourcePoint" />
            <mxPoint x="770" y="290" as="targetPoint" />
            <Array as="points">
              <mxPoint x="665" y="190" />
            </Array>
          </mxGeometry>
        </mxCell>
        <mxCell id="68QdZSAuThLKgnhkQhWJ-53" value="" style="edgeStyle=segmentEdgeStyle;endArrow=classic;html=1;curved=0;rounded=0;endSize=8;startSize=8;entryX=1;entryY=0.5;entryDx=0;entryDy=0;" edge="1" parent="1" source="68QdZSAuThLKgnhkQhWJ-43" target="68QdZSAuThLKgnhkQhWJ-41">
          <mxGeometry width="50" height="50" relative="1" as="geometry">
            <mxPoint x="340" y="330" as="sourcePoint" />
            <mxPoint x="390" y="280" as="targetPoint" />
          </mxGeometry>
        </mxCell>
        <mxCell id="68QdZSAuThLKgnhkQhWJ-54" value="" style="edgeStyle=segmentEdgeStyle;endArrow=classic;html=1;curved=0;rounded=0;endSize=8;startSize=8;exitX=0;exitY=0.5;exitDx=0;exitDy=0;entryX=0;entryY=0.5;entryDx=0;entryDy=0;" edge="1" parent="1">
          <mxGeometry width="50" height="50" relative="1" as="geometry">
            <mxPoint x="80" y="459" as="sourcePoint" />
            <mxPoint x="686.9999999999995" y="829" as="targetPoint" />
            <Array as="points">
              <mxPoint x="40" y="459" />
              <mxPoint x="40" y="839" />
              <mxPoint x="687" y="839" />
            </Array>
          </mxGeometry>
        </mxCell>
        <mxCell id="68QdZSAuThLKgnhkQhWJ-55" value="" style="edgeStyle=segmentEdgeStyle;endArrow=classic;html=1;curved=0;rounded=0;endSize=8;startSize=8;exitX=1;exitY=0.5;exitDx=0;exitDy=0;entryX=0.5;entryY=0;entryDx=0;entryDy=0;" edge="1" parent="1" source="68QdZSAuThLKgnhkQhWJ-37" target="68QdZSAuThLKgnhkQhWJ-42">
          <mxGeometry width="50" height="50" relative="1" as="geometry">
            <mxPoint x="529.94" y="75" as="sourcePoint" />
            <mxPoint x="579.94" y="25" as="targetPoint" />
          </mxGeometry>
        </mxCell>
        <mxCell id="68QdZSAuThLKgnhkQhWJ-56" value="" style="edgeStyle=segmentEdgeStyle;endArrow=classic;html=1;curved=0;rounded=0;endSize=8;startSize=8;exitX=0;exitY=0.5;exitDx=0;exitDy=0;entryX=1;entryY=0.5;entryDx=0;entryDy=0;" edge="1" parent="1" source="68QdZSAuThLKgnhkQhWJ-35" target="68QdZSAuThLKgnhkQhWJ-38">
          <mxGeometry width="50" height="50" relative="1" as="geometry">
            <mxPoint x="190" y="370" as="sourcePoint" />
            <mxPoint x="240" y="320" as="targetPoint" />
          </mxGeometry>
        </mxCell>
        <mxCell id="68QdZSAuThLKgnhkQhWJ-57" value="" style="edgeStyle=segmentEdgeStyle;endArrow=classic;html=1;curved=0;rounded=0;endSize=8;startSize=8;exitX=1;exitY=1;exitDx=0;exitDy=0;entryX=0.5;entryY=0;entryDx=0;entryDy=0;jumpStyle=arc;" edge="1" parent="1" source="68QdZSAuThLKgnhkQhWJ-37" target="68QdZSAuThLKgnhkQhWJ-40">
          <mxGeometry width="50" height="50" relative="1" as="geometry">
            <mxPoint x="600" y="120" as="sourcePoint" />
            <mxPoint x="650" y="70" as="targetPoint" />
          </mxGeometry>
        </mxCell>
        <mxCell id="68QdZSAuThLKgnhkQhWJ-58" value="Механик" style="shape=umlActor;verticalLabelPosition=bottom;verticalAlign=top;html=1;outlineConnect=0;" vertex="1" parent="1">
          <mxGeometry x="550" y="640" width="30" height="60" as="geometry" />
        </mxCell>
        <mxCell id="68QdZSAuThLKgnhkQhWJ-60" value="" style="edgeStyle=segmentEdgeStyle;endArrow=classic;html=1;curved=0;rounded=0;endSize=8;startSize=8;exitX=0.093;exitY=0.209;exitDx=0;exitDy=0;exitPerimeter=0;" edge="1" parent="1" source="68QdZSAuThLKgnhkQhWJ-41" target="68QdZSAuThLKgnhkQhWJ-58">
          <mxGeometry width="50" height="50" relative="1" as="geometry">
            <mxPoint x="450" y="780" as="sourcePoint" />
            <mxPoint x="500" y="730" as="targetPoint" />
          </mxGeometry>
        </mxCell>
        <mxCell id="68QdZSAuThLKgnhkQhWJ-61" value="" style="edgeStyle=segmentEdgeStyle;endArrow=classic;html=1;curved=0;rounded=0;endSize=8;startSize=8;exitX=0.5;exitY=0;exitDx=0;exitDy=0;entryX=0.5;entryY=0;entryDx=0;entryDy=0;jumpStyle=arc;" edge="1" parent="1" source="68QdZSAuThLKgnhkQhWJ-36" target="68QdZSAuThLKgnhkQhWJ-34">
          <mxGeometry width="50" height="50" relative="1" as="geometry">
            <mxPoint x="520" y="130" as="sourcePoint" />
            <mxPoint x="570" y="80" as="targetPoint" />
            <Array as="points">
              <mxPoint x="530" y="120" />
              <mxPoint x="150" y="120" />
            </Array>
          </mxGeometry>
        </mxCell>
        <mxCell id="68QdZSAuThLKgnhkQhWJ-62" value="" style="edgeStyle=segmentEdgeStyle;endArrow=classic;html=1;curved=0;rounded=0;endSize=8;startSize=8;exitX=0.5;exitY=1;exitDx=0;exitDy=0;entryX=0.5;entryY=0;entryDx=0;entryDy=0;" edge="1" parent="1" source="68QdZSAuThLKgnhkQhWJ-34" target="68QdZSAuThLKgnhkQhWJ-38">
          <mxGeometry width="50" height="50" relative="1" as="geometry">
            <mxPoint x="270" y="440" as="sourcePoint" />
            <mxPoint x="320" y="390" as="targetPoint" />
          </mxGeometry>
        </mxCell>
      </root>
    </mxGraphModel>
  </diagram>
</mxfile>
